<?xml version="1.0" encoding="UTF-8" standalone="no"?>
<!-- Created with Inkscape (http://www.inkscape.org/) -->

<svg
   version="1.1"
   id="svg18"
   width="280.328"
   height="161.11469"
   viewBox="0 0 280.328 161.11469"
   sodipodi:docname="Identidad SPACE (1).pdf"
   xmlns:inkscape="http://www.inkscape.org/namespaces/inkscape"
   xmlns:sodipodi="http://sodipodi.sourceforge.net/DTD/sodipodi-0.dtd"
   xmlns="http://www.w3.org/2000/svg"
   xmlns:svg="http://www.w3.org/2000/svg">
  <defs
     id="defs22">
    <linearGradient
       x1="0"
       y1="0"
       x2="1"
       y2="0"
       gradientUnits="userSpaceOnUse"
       gradientTransform="matrix(60.242355,0,0,-60.242355,27.281979,295.92755)"
       spreadMethod="pad"
       id="linearGradient468">
      <stop
         style="stop-opacity:1;stop-color:#bdbcbc"
         offset="0"
         id="stop464" />
      <stop
         style="stop-opacity:1;stop-color:#4f4c4d"
         offset="1"
         id="stop466" />
    </linearGradient>
    <linearGradient
       x1="0"
       y1="0"
       x2="1"
       y2="0"
       gradientUnits="userSpaceOnUse"
       gradientTransform="matrix(57.208122,0,0,-57.208122,78.044258,290.75342)"
       spreadMethod="pad"
       id="linearGradient488">
      <stop
         style="stop-opacity:1;stop-color:#bdbcbc"
         offset="0"
         id="stop484" />
      <stop
         style="stop-opacity:1;stop-color:#bdbcbc"
         offset="1"
         id="stop486" />
    </linearGradient>
    <linearGradient
       x1="0"
       y1="0"
       x2="1"
       y2="0"
       gradientUnits="userSpaceOnUse"
       gradientTransform="matrix(26.40208,0,0,-26.40208,48.450138,233.71173)"
       spreadMethod="pad"
       id="linearGradient508">
      <stop
         style="stop-opacity:1;stop-color:#bdbcbc"
         offset="0"
         id="stop504" />
      <stop
         style="stop-opacity:1;stop-color:#bdbcbc"
         offset="1"
         id="stop506" />
    </linearGradient>
    <linearGradient
       x1="0"
       y1="0"
       x2="1"
       y2="0"
       gradientUnits="userSpaceOnUse"
       gradientTransform="matrix(157.06616,0,0,-157.06616,80.461823,245.4668)"
       spreadMethod="pad"
       id="linearGradient528">
      <stop
         style="stop-opacity:1;stop-color:#bdbcbc"
         offset="0"
         id="stop524" />
      <stop
         style="stop-opacity:1;stop-color:#4f4c4d"
         offset="1"
         id="stop526" />
    </linearGradient>
    <linearGradient
       x1="0"
       y1="0"
       x2="1"
       y2="0"
       gradientUnits="userSpaceOnUse"
       gradientTransform="matrix(22.98354,0,0,-22.98354,167.53569,266.80414)"
       spreadMethod="pad"
       id="linearGradient548">
      <stop
         style="stop-opacity:1;stop-color:#bdbcbc"
         offset="0"
         id="stop544" />
      <stop
         style="stop-opacity:1;stop-color:#4f4c4d"
         offset="1"
         id="stop546" />
    </linearGradient>
    <linearGradient
       x1="0"
       y1="0"
       x2="1"
       y2="0"
       gradientUnits="userSpaceOnUse"
       gradientTransform="matrix(30.062742,0,0,-30.062742,163.65622,282.51401)"
       spreadMethod="pad"
       id="linearGradient568">
      <stop
         style="stop-opacity:1;stop-color:#bdbcbc"
         offset="0"
         id="stop564" />
      <stop
         style="stop-opacity:1;stop-color:#4f4c4d"
         offset="1"
         id="stop566" />
    </linearGradient>
    <linearGradient
       x1="0"
       y1="0"
       x2="1"
       y2="0"
       gradientUnits="userSpaceOnUse"
       gradientTransform="matrix(29.076109,0,0,-29.076109,166.66272,272.53806)"
       spreadMethod="pad"
       id="linearGradient588">
      <stop
         style="stop-opacity:1;stop-color:#bdbcbc"
         offset="0"
         id="stop584" />
      <stop
         style="stop-opacity:1;stop-color:#4f4c4d"
         offset="1"
         id="stop586" />
    </linearGradient>
  </defs>
  <sodipodi:namedview
     id="namedview20"
     pagecolor="#ffffff"
     bordercolor="#000000"
     borderopacity="0.25"
     inkscape:showpageshadow="2"
     inkscape:pageopacity="0.0"
     inkscape:pagecheckerboard="0"
     inkscape:deskcolor="#d1d1d1"
     showgrid="false" />
  <g
     id="g364"
     inkscape:groupmode="layer"
     inkscape:label="Page 3"
     transform="matrix(1.3333333,0,0,-1.3333333,-36.375977,449.12134)">
    <g
       id="g452"
       inkscape:export-filename="g452.svg"
       inkscape:export-xdpi="96"
       inkscape:export-ydpi="96">
      <g
         id="g454">
        <g
           id="g460">
          <g
             id="g462">
            <path
               d="m 48.965,330.268 c -5.429,-4.383 -8.143,-9.159 -8.143,-14.325 v 0 c 0,-2.29 0.702,-4.187 2.109,-5.69 v 0 c 1.407,-1.506 3.189,-2.258 5.348,-2.258 v 0 c 2.223,0 3.858,0.916 4.906,2.748 v 0 c -1.702,0.523 -3.091,1.553 -4.171,3.091 v 0 c -1.079,1.536 -1.618,3.286 -1.618,5.248 v 0 c 0,3.989 1.668,7.457 5.004,10.401 v 0 c 3.335,2.944 7.226,4.415 11.675,4.415 v 0 c 4.513,0 8.127,-1.587 10.842,-4.758 v 0 c 2.713,-3.174 4.071,-7.408 4.071,-12.706 v 0 c 0,-3.86 -0.736,-7.604 -2.207,-11.235 v 0 c -1.472,-3.63 -3.795,-7.376 -6.966,-11.234 v 0 c -3.174,-3.86 -7.506,-8.242 -13.001,-13.147 v 0 C 51.32,276.043 46.086,271.725 41.117,267.867 v 0 c -4.971,-3.861 -9.582,-7.229 -13.835,-10.106 v 0 -2.748 c 5.038,1.242 9.812,1.865 14.325,1.865 v 0 c 3.4,0 8.764,-0.392 16.09,-1.177 v 0 c 4.056,-0.457 7.718,-0.688 10.989,-0.688 v 0 c 3.4,0 6.606,0.294 9.616,0.884 v 0 l 5.985,17.856 h -1.472 c -1.766,-3.663 -3.763,-6.278 -5.985,-7.849 v 0 c -2.225,-1.569 -5.136,-2.354 -8.732,-2.354 v 0 c -1.047,0 -2.683,0.065 -4.906,0.196 v 0 l -7.947,0.589 c -2.158,0.196 -4.416,0.294 -6.77,0.294 v 0 c -2.944,0 -5.789,-0.23 -8.537,-0.687 v 0 c 1.439,1.112 4.677,3.564 9.714,7.359 v 0 c 11.053,8.109 18.903,14.422 23.548,18.935 v 0 c 5.166,4.971 8.845,9.485 11.037,13.541 v 0 c 2.191,4.054 3.287,8.404 3.287,13.049 v 0 c 0,6.018 -1.912,10.857 -5.739,14.521 v 0 c -3.827,3.663 -8.88,5.494 -15.159,5.494 v 0 c -6.345,0 -12.232,-2.192 -17.661,-6.573"
               style="fill:url(#linearGradient468);stroke:none"
               id="path470" />
          </g>
        </g>
      </g>
    </g>
    <g
       id="g472">
      <g
         id="g474">
        <g
           id="g480">
          <g
             id="g482">
            <path
               d="m 123.765,314.703 c -0.85,-1.832 -2.109,-3.189 -3.777,-4.073 v 0 c -1.668,-0.882 -3.875,-1.323 -6.622,-1.323 v 0 c -1.506,0 -4.023,0.129 -7.556,0.392 v 0 c -3.924,0.392 -7.195,0.589 -9.811,0.589 v 0 c -2.159,0 -4.35,-0.197 -6.573,-0.589 v 0 l -11.382,-34.046 2.257,-0.589 c 3.596,2.027 7.064,3.041 10.4,3.041 v 0 c 3.728,0 7.227,-0.981 10.499,-2.943 v 0 c 3.269,-1.962 5.82,-4.596 7.652,-7.898 v 0 c 0.084,-0.152 0.165,-0.306 0.245,-0.46 v 0 l 0.248,0.208 0.02,-0.025 25.887,21.405 -0.708,0.857 -19.99,-16.53 c -0.205,0.41 -0.42,0.817 -0.649,1.218 v 0 c -2.192,3.825 -5.2,6.85 -9.026,9.074 v 0 c -3.827,2.223 -8.062,3.337 -12.706,3.337 v 0 c -2.814,0 -5.593,-0.459 -8.34,-1.374 v 0 l 5.593,16.189 c 1.766,0.26 3.335,0.392 4.709,0.392 v 0 c 1.57,0 2.78,-0.033 3.63,-0.098 v 0 l 7.555,-0.589 c 2.944,-0.196 5.951,-0.294 9.027,-0.294 v 0 c 2.747,0 4.97,0.196 6.672,0.589 v 0 l 4.709,13.54 z"
               style="fill:url(#linearGradient488);stroke:none"
               id="path490" />
          </g>
        </g>
      </g>
    </g>
    <g
       id="g492">
      <g
         id="g494">
        <g
           id="g500">
          <g
             id="g502">
            <path
               d="m 68.282,248.818 c -1.34,-1.733 -2.011,-3.875 -2.011,-6.425 v 0 c 0,-3.06 0.894,-5.689 2.675,-7.892 v 0 l -20.496,-17.654 0.726,-0.842 24.818,21.378 0.858,0.718 c -1.664,2.381 -2.498,5.119 -2.498,8.215 v 0 c 0,1.635 0.36,3.337 1.079,5.103 v 0 c -2.093,0 -3.81,-0.868 -5.151,-2.601"
               style="fill:url(#linearGradient508);stroke:none"
               id="path510" />
          </g>
        </g>
      </g>
    </g>
    <g
       id="g512">
      <g
         id="g514">
        <g
           id="g520">
          <g
             id="g522">
            <path
               d="m 171.146,247.757 c -0.478,-2.364 -0.605,-4.568 -0.352,-6.569 v 0 l 0.593,-2.63 c 1.714,-5.088 6.546,-8.415 15.137,-9.038 v 0 c 8.098,-0.185 13.941,3.247 17.524,10.297 v 0 l 0.042,0.198 -8.515,1.223 c 0,0 -1.944,-6.804 -9.244,-5.857 v 0 c -8.475,1.094 -5.063,11.053 -5.063,11.053 v 0 c 0,0 1.167,10.019 9.345,9.546 v 0 c 6.931,-0.401 5.936,-6.9 5.936,-6.9 v 0 l 9.346,0.283 c 0,0 0.876,11.718 -15.282,12.381 v 0 c -0.341,0.014 -0.675,0.021 -1.004,0.021 v 0 c -14.921,-10e-4 -18.463,-14.008 -18.463,-14.008 m -86.709,3.841 c -0.428,-7.153 10.896,-8.796 13.317,-9.066 v 0 c 7,-0.78 6.233,-4.051 6.233,-4.051 v 0 C 101.732,232.6 89.807,234.79 88.926,239.5 v 0 l -8.464,-1.019 c 3.235,-12.963 31.067,-12.014 32.866,0.498 v 0 c 0,0 1.571,8.323 -12.546,10.098 v 0 c -6.596,0.832 -7.515,1.913 -7.173,4.438 v 0 c 2.055,3.888 11.058,2.776 12.374,-1.413 v 0 l 8.371,1.413 c 0,0 -2.141,7.908 -15.112,8.074 v 0 c -0.13,10e-4 -0.258,0.002 -0.386,0.002 v 0 c -11.123,0 -14.204,-6.347 -14.419,-9.993 m 70.678,9.483 -19.177,-31.088 h 8.858 l 3.992,6.803 h 13.531 l 1.458,-6.803 h 9.541 l -1.931,8.565 c -0.28,0.831 -0.477,1.709 -0.593,2.63 v 0 l -4.487,19.893 z m 3.795,-6.52 2.532,-12.377 h -9.735 z m -40.588,6.52 -6.955,-30.978 h 9.562 c 0,0 2.425,11.566 2.469,11.566 v 0 h 10.489 c 0,0 11.396,-0.241 13.734,8.923 v 0 c 0.936,3.682 -2.044,10.489 -11.78,10.489 v 0 z m 8.174,-5.502 h 6.555 c 0,0 6.327,0.252 5.577,-4.496 v 0 c -0.555,-3.495 -5.505,-4.082 -5.505,-4.082 v 0 h -8.592 z m 82.123,5.408 -4.529,-20.972 0.053,-0.008 c -0.031,-0.063 -0.063,-0.127 -0.095,-0.19 v 0 l -2.142,-9.917 h 29.002 l 1.364,5.95 h -19.564 l 1.558,7.373 h 16.061 l 1.167,5.67 H 215.63 l 1.461,6.424 h 19.073 l 1.364,5.67 z"
               style="fill:url(#linearGradient528);stroke:none"
               id="path530" />
          </g>
        </g>
      </g>
    </g>
    <g
       id="g532">
      <g
         id="g534">
        <g
           id="g540">
          <g
             id="g542">
            <path
               d="m 167.536,271.251 2.046,-9.246 20.937,5.877 c -4.26,1.97 -9.191,3.26 -14.501,3.619 v 0 c -1.01,0.069 -2.01,0.102 -2.999,0.102 v 0 c -1.872,0 -3.704,-0.12 -5.483,-0.352"
               style="fill:url(#linearGradient548);stroke:none"
               id="path550" />
          </g>
        </g>
      </g>
    </g>
    <g
       id="g552">
      <g
         id="g554">
        <g
           id="g560">
          <g
             id="g562">
            <path
               d="m 166.314,276.842 c 11.839,-1.814 22.022,0.289 27.405,3.458 v 0 l -1.253,6.672 -28.81,1.885 z"
               style="fill:url(#linearGradient568);stroke:none"
               id="path570" />
          </g>
        </g>
      </g>
    </g>
    <g
       id="g572">
      <g
         id="g574">
        <g
           id="g580">
          <g
             id="g582">
            <path
               d="m 166.663,275.26 0.65,-2.938 c 2.808,0.463 5.758,0.616 8.788,0.411 v 0 c 5.739,-0.39 11.015,-2.011 15.425,-4.501 v 0 l 4.213,1.182 -1.378,7.43 c -8.995,-3.026 -18.703,-3.597 -27.698,-1.584"
               style="fill:url(#linearGradient588);stroke:none"
               id="path590" />
          </g>
        </g>
      </g>
    </g>
    <text
       xml:space="preserve"
       transform="matrix(1,0,0,-0.9997751,193.1875,287.9463)"
       style="font-variant:normal;font-weight:normal;font-stretch:normal;font-size:9.3375px;font-family:Arial;-inkscape-font-specification:ArialMT;writing-mode:lr-tb;fill:#7b7979;fill-opacity:1;fill-rule:nonzero;stroke:none"
       id="text594"><tspan
         x="0"
         y="0"
         id="tspan592">®</tspan></text>
  </g>
</svg>
